<svg xmlns="http://www.w3.org/2000/svg" width="705" height="788" fill="none" viewBox="0 0 705 788"><path fill="#f66" d="M395.35 393.735v.11l-.109-.11Z"/><path fill="#f66" d="M395.35 393.735v.11l-.109-.11Z"/><path fill="#cfcfcf" d="M790 393.735H395.344l31.788-31.706 24.365-24.302 34.469 5.724 106.775 17.687Z"/><path fill="#858585" d="m587.172 202.403-79.935 111.433-21.272 29.615-34.469-5.724ZM339.155 449.778 203.204 585.376l80.141-111.708 21.204-29.615Z"/><path fill="#cfcfcf" d="m344.894 484.191-29.692 21.252-111.998 79.933 135.951-135.599Z"/><path fill="#f66" d="M395.35 393.735v.11l-.109-.11Z"/><path fill="#cfcfcf" d="m587.413 202.095-.241.309-135.676 135.324-5.808-34.448 29.761-21.252Z"/><path fill="#858585" d="m587.413 585.376-111.964-79.933-29.761-21.252 5.739-34.414ZM395.24 393.736H.55l197.396-32.597 106.706-17.618 34.503-5.724 24.297 24.233ZM344.894 303.28l-5.739 34.448v.068l-135.71-135.392-.241-.309 111.998 79.933Z"/><path fill="#cfcfcf" d="m339.155 337.795-34.503 5.725-21.307-29.684-79.9-111.433Z"/><path fill="#fc6f6f" d="M395.343 0v393.735h-.103l-31.788-31.705-24.297-24.234v-.069l5.739-34.448 17.664-106.394Z"/><path fill="#cfcfcf" d="m395.343 393.838-31.891 31.706-24.297 24.234-34.606-5.725-106.603-17.618-197.397-32.7h394.69Z"/><path fill="#f66" d="M395.35 393.735v.11l-.109-.11Z"/><path fill="#cfcfcf" d="m451.429 449.778-5.739 34.413-17.664 106.395-32.682 196.885V393.838l31.788 31.706Z"/><path fill="#cfcfcf" d="M587.413 585.376 451.428 449.778h.068l34.538-5.725 21.204 29.615Z"/><path fill="#ff3030" d="m451.497 337.727-24.365 24.303-31.788 31.705V0l32.682 196.885 17.664 106.394Z"/><path fill="#858585" d="M395.343 393.838v393.633l-32.785-196.885-17.664-106.395-5.739-34.413 24.297-24.234ZM790 393.735l-197.259 32.7-106.706 17.618-34.538 5.725h-.068l-24.297-24.234-31.788-31.706v-.103Z"/></svg>