<svg xmlns="http://www.w3.org/2000/svg" width="351" height="228" fill="none" viewBox="0 0 351 228"><path fill="#f66" d="M175.473 175v.049l-.048-.049Z"/><path fill="#f66" d="M175.473 175v.049l-.048-.049Z"/><path fill="#cfcfcf" d="M350.88 175H175.471l14.128-14.092 10.83-10.802 15.32 2.545 47.457 7.861Z"/><path fill="#858585" d="m260.731 89.96-35.528 49.528-9.455 13.163-15.32-2.544ZM150.497 199.908l-60.425 60.268 35.62-49.65 9.424-13.162Z"/><path fill="#cfcfcf" d="m153.048 215.204-13.197 9.445-49.779 35.527 60.425-60.268Z"/><path fill="#f66" d="M175.473 175v.049l-.048-.049Z"/><path fill="#cfcfcf" d="m260.838 89.823-.107.137-60.303 60.147-2.581-15.311 13.227-9.446Z"/><path fill="#858585" d="m260.838 260.176-49.764-35.527-13.227-9.445 2.551-15.296ZM175.424 175.001H0l87.735-14.489 47.427-7.83 15.335-2.544 10.799 10.771ZM153.048 134.796l-2.551 15.311v.03L90.179 89.96l-.107-.137 49.779 35.527Z"/><path fill="#cfcfcf" d="m150.497 150.137-15.335 2.544-9.47-13.193L90.179 89.96Z"/><path fill="#fc6f6f" d="M175.47 0v175h-.045l-14.129-14.092-10.799-10.771v-.03l2.551-15.311 7.851-47.288Z"/><path fill="#cfcfcf" d="m175.47 175.046-14.174 14.092-10.799 10.771-15.381-2.545-47.38-7.83L0 175h175.424Z"/><path fill="#f66" d="M175.473 175v.049l-.048-.049Z"/><path fill="#cfcfcf" d="m200.398 199.909-2.551 15.295-7.851 47.289L175.471 350V175.046l14.128 14.092ZM260.838 260.176l-60.44-60.268h.03l15.351-2.544 9.424 13.162Z"/><path fill="#ff3030" d="m200.429 150.107-10.83 10.801L175.471 175V0l14.525 87.508 7.851 47.288Z"/><path fill="#858585" d="M175.47 175.046V350l-14.571-87.507-7.851-47.289-2.551-15.295 10.799-10.771ZM350.88 175l-87.674 14.534-47.427 7.83-15.35 2.545h-.031l-10.799-10.771-14.128-14.092V175Z"/></svg>