<svg xmlns="http://www.w3.org/2000/svg" width="646" height="330" viewBox="0 0 646 330" fill="none">
<g clip-path="url(#clip0_57_1398)">
<path d="M0 2.23001H32.77C54.84 2.23001 65.99 13.6 65.99 35.89V47.71C65.99 61.53 61.75 70 53.06 74.24V74.69C61.75 78.93 65.99 87.4 65.99 101.22V156.06H37.9V98.1C37.9 89.63 35.45 87.62 28.31 87.62H28.09V156.06H0V2.23001ZM30.32 64.43C36.34 64.43 37.9 62.2 37.9 53.73V36.12C37.9 27.65 36.34 25.42 30.32 25.42H28.09V64.43H30.32Z" fill="white"/>
<path d="M92.55 2.23001H132.01L147.84 156.05H119.3L117.29 126.4H105.7L103.69 156.05H76.71L92.55 2.23001ZM116.4 103.22L111.72 26.98H111.27L106.59 103.22H116.4Z" fill="white"/>
<path d="M155.36 124.4V99.43H182.78V126.41C182.78 132.43 184.34 134.66 188.13 134.66C191.92 134.66 193.26 132.43 193.26 126.41V103.89C193.26 98.54 191.25 94.75 186.57 91.63L173.86 83.16C160.93 74.47 155.36 64.66 155.36 49.05V33C155.36 12.49 167.4 0.0100098 187.24 0.0100098C207.08 0.0100098 219.79 12.49 219.79 33V52.17H192.37V30.77C192.37 25.64 191.03 23.64 187.91 23.64C184.57 23.64 183.45 25.65 183.45 30.77V48.16C183.45 53.51 185.46 57.3 190.14 60.42L202.85 68.89C215.78 77.58 221.35 87.39 221.35 103V124.4C221.35 145.58 209.31 158.29 188.36 158.29C167.41 158.29 155.37 145.58 155.37 124.4H155.36Z" fill="white"/>
<path d="M232.08 2.23001H260.17V61.75H269.98V2.23001H298.07V156.05H269.98V84.94H260.17V156.05H232.08V2.23001Z" fill="white"/>
<path d="M308.8 2.23001H336.89V156.05H308.8V2.23001Z" fill="white"/>
<path d="M347.63 2.23001H380.91L393.84 88.95H394.29V2.23001H413.79V156.05H385.59L370.88 55.51H370.43V156.05H347.63V2.23001Z" fill="white"/>
<path d="M424.52 2.23001H455.64C477.71 2.23001 488.86 13.6 488.86 35.89V45.03C488.86 58.63 484.62 66.88 476.38 71.34V71.79C485.3 76.03 489.76 84.5 489.76 98.54V122.39C489.76 144.68 478.61 156.05 456.54 156.05H424.53V2.23001H424.52ZM453.19 62.2C459.21 62.2 460.77 59.97 460.77 51.5V36.12C460.77 27.65 459.21 25.42 453.19 25.42H450.96V62.2H453.19ZM454.08 132.87C460.1 132.87 461.66 130.64 461.66 122.17V96.09C461.66 87.62 460.1 85.39 454.08 85.39H450.96V132.87H454.08Z" fill="white"/>
<path d="M513.37 2.23001H552.83L568.66 156.05H540.12L538.11 126.4H526.52L524.51 156.05H497.53L513.36 2.23001H513.37ZM537.22 103.22L532.54 26.98H532.09L527.41 103.22H537.22Z" fill="white"/>
<path d="M579.39 2.23001H612.67L625.6 88.95H626.05V2.23001H645.55V156.05H617.35L602.64 55.51H602.19V156.05H579.39V2.23001Z" fill="white"/>
<path d="M217.73 266.09C206.81 281.03 204.58 286.15 204.13 300.2H241.58V326.95H178.04V308.22C178.04 281.69 181.16 270.32 193.87 253.16L205.91 236.89C213.49 226.64 213.94 223.74 213.94 210.58V200.33C213.94 195.2 212.82 193.2 209.48 193.2C206.36 193.2 205.02 195.21 205.02 200.33V223.51H178.05V203C178.05 183.16 190.31 170.9 209.48 170.9C228.65 170.9 241.58 183.16 241.58 203V207.23C241.58 227.52 238.9 237.55 229.76 249.81L217.72 266.08L217.73 266.09Z" fill="white"/>
<path d="M252.31 296.19V203.9C252.31 183.61 264.79 170.91 285.08 170.91C305.37 170.91 317.85 183.62 317.85 203.9V296.19C317.85 316.48 305.37 329.18 285.08 329.18C264.79 329.18 252.31 316.47 252.31 296.19ZM290.21 298.64V201.44C290.21 195.42 288.87 193.19 285.08 193.19C281.29 193.19 279.95 195.42 279.95 201.44V298.64C279.95 304.66 281.29 306.89 285.08 306.89C288.87 306.89 290.21 304.66 290.21 298.64Z" fill="white"/>
<path d="M368.27 266.09C357.35 281.03 355.12 286.15 354.67 300.2H392.12V326.95H328.58V308.22C328.58 281.69 331.7 270.32 344.41 253.16L356.45 236.89C364.03 226.64 364.48 223.74 364.48 210.58V200.33C364.48 195.2 363.36 193.2 360.02 193.2C356.9 193.2 355.56 195.21 355.56 200.33V223.51H328.59V203C328.59 183.16 340.85 170.9 360.02 170.9C379.19 170.9 392.12 183.16 392.12 203V207.23C392.12 227.52 389.44 237.55 380.3 249.81L368.26 266.08L368.27 266.09Z" fill="white"/>
<path d="M402.86 296.41V275.23H429.61V298.64C429.61 304.66 430.95 306.89 434.74 306.89C438.53 306.89 439.87 304.66 439.87 298.64V246.25C439.87 242.68 438.75 240.23 435.63 240.23C431.84 240.23 429.61 243.13 429.61 250.93V255.61H403.3L405.53 173.12H465.28V199.87H429.16L428.49 225.95H428.94C432.51 220.6 437.63 217.92 444.77 217.92C458.59 217.92 467.51 228.4 467.51 245.34V296.39C467.51 316.68 455.25 329.16 435.19 329.16C415.13 329.16 402.86 316.68 402.86 296.39V296.41Z" fill="white"/>
<path d="M322.79 164.59V164.62L322.77 164.59H322.79Z" fill="#FF6666"/>
<path d="M322.79 164.59V164.62L322.77 164.59H322.79Z" fill="#FF6666"/>
<path d="M437.64 164.59H322.79L332.04 155.34L339.13 148.25L349.16 149.92L380.23 155.08L437.64 164.59Z" fill="#CFCFCF"/>
<path d="M378.61 108.77L355.36 141.28L349.16 149.92L339.13 148.25L378.61 108.77Z" fill="#858585"/>
<path d="M306.45 180.94L266.88 220.5L290.2 187.91L296.38 179.27L306.45 180.94Z" fill="#858585"/>
<path d="M308.12 190.98L299.47 197.18L266.88 220.5L306.45 180.94L308.12 190.98Z" fill="#CFCFCF"/>
<path d="M322.79 164.59V164.62L322.77 164.59H322.79Z" fill="#FF6666"/>
<path d="M378.68 108.68L378.61 108.77L339.13 148.25L337.45 138.2L346.11 132L378.68 108.68Z" fill="#CFCFCF"/>
<path d="M378.68 220.5L346.11 197.18L337.45 190.98L339.11 180.94L378.68 220.5Z" fill="#858585"/>
<path d="M322.77 164.59H207.92L265.36 155.08L296.4 149.94L306.45 148.27L313.52 155.34L322.77 164.59Z" fill="#858585"/>
<path d="M308.12 138.2L306.45 148.25V148.27L266.96 108.77L266.88 108.68L299.47 132L308.12 138.2Z" fill="#858585"/>
<path d="M306.45 148.27L296.4 149.94L290.2 141.28L266.96 108.77L306.45 148.27Z" fill="#CFCFCF"/>
<path d="M322.79 49.72V164.59H322.77L313.52 155.34L306.45 148.27V148.25L308.12 138.2L313.26 107.16L322.79 49.72Z" fill="#FC6F6F"/>
<path d="M322.79 164.62L313.52 173.87L306.45 180.94L296.38 179.27L265.36 174.13L207.92 164.59H322.77L322.79 164.62Z" fill="#CFCFCF"/>
<path d="M322.79 164.59V164.62L322.77 164.59H322.79Z" fill="#FF6666"/>
<path d="M339.11 180.94L337.45 190.98L332.3 222.02L322.79 279.46V164.62L332.04 173.87L339.11 180.94Z" fill="#CFCFCF"/>
<path d="M378.68 220.5L339.11 180.94H339.13L349.19 179.27L355.36 187.91L378.68 220.5Z" fill="#CFCFCF"/>
<path d="M339.13 148.25L332.04 155.34L322.79 164.59V49.72L332.3 107.16L337.45 138.2L339.13 148.25Z" fill="#FF3030"/>
<path d="M322.79 164.62V279.46L313.26 222.02L308.12 190.98L306.45 180.94L313.52 173.87L322.79 164.62Z" fill="#858585"/>
<path d="M437.64 164.59L380.23 174.13L349.19 179.27L339.13 180.94H339.11L332.04 173.87L322.79 164.62V164.59H437.64Z" fill="#858585"/>
</g>
<defs>
<clipPath id="clip0_57_1398">
<rect width="645.56" height="329.18" fill="white"/>
</clipPath>
</defs>
</svg>