<svg xmlns="http://www.w3.org/2000/svg" width="646" height="330" fill="none" viewBox="0 0 646 330"><g clip-path="url(#clip0_57_1398)"><path fill="#fff" d="M0 2.23h32.77c22.07 0 33.22 11.37 33.22 33.66v11.82c0 13.82-4.24 22.29-12.93 26.53v.45c8.69 4.24 12.93 12.71 12.93 26.53v54.84H37.9V98.1c0-8.47-2.45-10.48-9.59-10.48h-.22v68.44H0Zm30.32 62.2c6.02 0 7.58-2.23 7.58-10.7V36.12c0-8.47-1.56-10.7-7.58-10.7h-2.23v39.01Z"/><path fill="#fff" d="M92.55 2.23h39.46l15.83 153.82H119.3l-2.01-29.65H105.7l-2.01 29.65H76.71Zm23.85 100.99-4.68-76.24h-.45l-4.68 76.24Z"/><path fill="#fff" d="M155.36 124.4V99.43h27.42v26.98c0 6.02 1.56 8.25 5.35 8.25s5.13-2.23 5.13-8.25v-22.52c0-5.35-2.01-9.14-6.69-12.26l-12.71-8.47c-12.93-8.69-18.5-18.5-18.5-34.11V33c0-20.51 12.04-32.99 31.88-32.99S219.79 12.49 219.79 33v19.17h-27.42v-21.4c0-5.13-1.34-7.13-4.46-7.13-3.34 0-4.46 2.01-4.46 7.13v17.39c0 5.35 2.01 9.14 6.69 12.26l12.71 8.47c12.93 8.69 18.5 18.5 18.5 34.11v21.4c0 21.18-12.04 33.89-32.99 33.89s-32.99-12.71-32.99-33.89Z"/><path fill="#fff" d="M232.08 2.23h28.09v59.52h9.81V2.23h28.09v153.82h-28.09V84.94h-9.81v71.11h-28.09Z"/><path fill="#fff" d="M308.8 2.23h28.09v153.82H308.8Z"/><path fill="#fff" d="M347.63 2.23h33.28l12.93 86.72h.45V2.23h19.5v153.82h-28.2L370.88 55.51h-.45v100.54h-22.8Z"/><path fill="#fff" d="M424.52 2.23h31.12c22.07 0 33.22 11.37 33.22 33.66v9.14c0 13.6-4.24 21.85-12.48 26.31v.45c8.92 4.24 13.38 12.71 13.38 26.75v23.85c0 22.29-11.15 33.66-33.22 33.66h-32.01V2.23Zm28.67 59.97c6.02 0 7.58-2.23 7.58-10.7V36.12c0-8.47-1.56-10.7-7.58-10.7h-2.23V62.2Zm.89 70.67c6.02 0 7.58-2.23 7.58-10.7V96.09c0-8.47-1.56-10.7-7.58-10.7h-3.12v47.48Z"/><path fill="#fff" d="M513.37 2.23h39.46l15.83 153.82h-28.54l-2.01-29.65h-11.59l-2.01 29.65h-26.98L513.36 2.23Zm23.85 100.99-4.68-76.24h-.45l-4.68 76.24Z"/><path fill="#fff" d="M579.39 2.23h33.28l12.93 86.72h.45V2.23h19.5v153.82h-28.2L602.64 55.51h-.45v100.54h-22.8Z"/><path fill="#fff" d="M217.73 266.09c-10.92 14.94-13.15 20.06-13.6 34.11h37.45v26.75h-63.54v-18.73c0-26.53 3.12-37.9 15.83-55.06l12.04-16.27c7.58-10.25 8.03-13.15 8.03-26.31v-10.25c0-5.13-1.12-7.13-4.46-7.13-3.12 0-4.46 2.01-4.46 7.13v23.18h-26.97V203c0-19.84 12.26-32.1 31.43-32.1s32.1 12.26 32.1 32.1v4.23c0 20.29-2.68 30.32-11.82 42.58l-12.04 16.27Z"/><path fill="#fff" d="M252.31 296.19V203.9c0-20.29 12.48-32.99 32.77-32.99s32.77 12.71 32.77 32.99v92.29c0 20.29-12.48 32.99-32.77 32.99s-32.77-12.71-32.77-32.99m37.9 2.45v-97.2c0-6.02-1.34-8.25-5.13-8.25s-5.13 2.23-5.13 8.25v97.2c0 6.02 1.34 8.25 5.13 8.25s5.13-2.23 5.13-8.25"/><path fill="#fff" d="M368.27 266.09c-10.92 14.94-13.15 20.06-13.6 34.11h37.45v26.75h-63.54v-18.73c0-26.53 3.12-37.9 15.83-55.06l12.04-16.27c7.58-10.25 8.03-13.15 8.03-26.31v-10.25c0-5.13-1.12-7.13-4.46-7.13-3.12 0-4.46 2.01-4.46 7.13v23.18h-26.97V203c0-19.84 12.26-32.1 31.43-32.1s32.1 12.26 32.1 32.1v4.23c0 20.29-2.68 30.32-11.82 42.58l-12.04 16.27Z"/><path fill="#fff" d="M402.86 296.41v-21.18h26.75v23.41c0 6.02 1.34 8.25 5.13 8.25s5.13-2.23 5.13-8.25v-52.39c0-3.57-1.12-6.02-4.24-6.02-3.79 0-6.02 2.9-6.02 10.7v4.68H403.3l2.23-82.49h59.75v26.75h-36.12l-.67 26.08h.45c3.57-5.35 8.69-8.03 15.83-8.03 13.82 0 22.74 10.48 22.74 27.42v51.05c0 20.29-12.26 32.77-32.32 32.77s-32.33-12.48-32.33-32.77Z"/><path fill="#f66" d="M322.79 164.59v.03l-.02-.03Z"/><path fill="#f66" d="M322.79 164.59v.03l-.02-.03Z"/><path fill="#cfcfcf" d="M437.64 164.59H322.79l9.25-9.25 7.09-7.09 10.03 1.67 31.07 5.16Z"/><path fill="#858585" d="m378.61 108.77-23.25 32.51-6.2 8.64-10.03-1.67Z"/><path fill="#858585" d="m306.45 180.94-39.57 39.56 23.32-32.59 6.18-8.64Z"/><path fill="#cfcfcf" d="m308.12 190.98-8.65 6.2-32.59 23.32 39.57-39.56Z"/><path fill="#f66" d="M322.79 164.59v.03l-.02-.03Z"/><path fill="#cfcfcf" d="m378.68 108.68-.07.09-39.48 39.48-1.68-10.05 8.66-6.2Z"/><path fill="#858585" d="m378.68 220.5-32.57-23.32-8.66-6.2 1.66-10.04Z"/><path fill="#858585" d="M322.77 164.59H207.92l57.44-9.51 31.04-5.14 10.05-1.67 7.07 7.07Z"/><path fill="#858585" d="m308.12 138.2-1.67 10.05v.02l-39.49-39.5-.08-.09L299.47 132Z"/><path fill="#cfcfcf" d="m306.45 148.27-10.05 1.67-6.2-8.66-23.24-32.51Z"/><path fill="#fc6f6f" d="M322.79 49.72v114.87h-.02l-9.25-9.25-7.07-7.07v-.02l1.67-10.05 5.14-31.04Z"/><path fill="#cfcfcf" d="m322.79 164.62-9.27 9.25-7.07 7.07-10.07-1.67-31.02-5.14-57.44-9.54h114.85Z"/><path fill="#f66" d="M322.79 164.59v.03l-.02-.03Z"/><path fill="#cfcfcf" d="m339.11 180.94-1.66 10.04-5.15 31.04-9.51 57.44V164.62l9.25 9.25Z"/><path fill="#cfcfcf" d="m378.68 220.5-39.57-39.56h.02l10.06-1.67 6.17 8.64Z"/><path fill="#ff3030" d="m339.13 148.25-7.09 7.09-9.25 9.25V49.72l9.51 57.44 5.15 31.04Z"/><path fill="#858585" d="M322.79 164.62v114.84l-9.53-57.44-5.14-31.04-1.67-10.04 7.07-7.07Z"/><path fill="#858585" d="m437.64 164.59-57.41 9.54-31.04 5.14-10.06 1.67h-.02l-7.07-7.07-9.25-9.25v-.03Z"/></g><defs><clipPath id="clip0_57_1398"><path fill="#fff" d="M0 0h645.56v329.18H0Z"/></clipPath></defs></svg>