<svg xmlns="http://www.w3.org/2000/svg" width="298" height="75" fill="none" viewBox="0 0 298 75"><g clip-path="url(#clip0_57_2970)"><path fill="#fff" d="M90.2 11.9h10.55c7.106 0 10.695 3.687 10.695 10.915v3.831c0 4.482-1.367 7.227-4.164 8.596v.145c2.797 1.376 4.164 4.12 4.164 8.597v17.78h-9.041V42.977c0-2.746-.791-3.398-3.085-3.398h-.072v22.183h-9.04V11.9Zm9.76 20.163c1.934 0 2.438-.724 2.438-3.469v-5.707c0-2.745-.504-3.469-2.438-3.469h-.719v12.645Z"/><path fill="#fff" d="M119.994 11.9h12.701l5.092 49.863h-9.184l-.647-9.61h-3.732l-.648 9.61h-8.68l5.092-49.862Zm7.681 32.735-1.51-24.717h-.144l-1.51 24.717h3.164"/><path fill="#fff" d="M140.212 51.501v-8.096h8.825v8.741c0 1.948.503 2.673 1.719 2.673s1.647-.725 1.647-2.673v-7.3c0-1.731-.647-2.962-2.15-3.976l-4.092-2.744c-4.164-2.818-5.955-5.997-5.955-11.059v-5.2c0-6.648 3.876-10.697 10.262-10.697s10.478 4.049 10.478 10.697v6.214h-8.824v-6.938c0-1.659-.431-2.31-1.438-2.31-1.079 0-1.438.651-1.438 2.31v5.635c0 1.73.647 2.962 2.15 3.975l4.092 2.745c4.164 2.817 5.955 5.997 5.955 11.059v6.938c0 6.865-3.876 10.986-10.622 10.986s-10.622-4.121-10.622-10.987Z"/><path fill="#fff" d="M164.908 11.9h9.04v19.293h3.157V11.901h9.04v49.862h-9.04V38.71h-3.157v23.052h-9.04Z"/><path fill="#fff" d="M189.603 11.9h9.04v49.862h-9.04Z"/><path fill="#fff" d="M202.101 11.9h10.714l4.163 28.115h.144V11.9h6.275v49.862h-9.079l-4.739-32.59h-.144v32.59h-7.34V11.9Z"/><path fill="#fff" d="M226.849 11.9h10.014c7.105 0 10.694 3.687 10.694 10.915v2.962c0 4.41-1.366 7.082-4.02 8.524v.145c2.869 1.376 4.307 4.12 4.307 8.669v7.734c0 7.228-3.588 10.914-10.693 10.914h-10.302Zm9.23 19.439c1.934 0 2.438-.724 2.438-3.47v-4.983c0-2.744-.504-3.468-2.438-3.468h-.719v11.92Zm.287 22.907c1.935 0 2.438-.724 2.438-3.47v-8.452c0-2.744-.503-3.468-2.438-3.468h-1.006v15.39Z"/><path fill="#fff" d="M255.453 11.9h12.701l5.092 49.863h-9.184l-.647-9.61h-3.733l-.647 9.61h-8.68l5.092-49.862Zm7.681 32.735-1.51-24.717h-.144l-1.51 24.717h3.164"/><path fill="#fff" d="M276.704 11.9h10.713l4.164 28.115h.144V11.9H298v49.862h-9.079l-4.739-32.59h-.144v32.59h-7.341V11.9Z"/><path fill="#f66" d="M37.902 37.5v.007l-.01-.007Z"/><path fill="#f66" d="M37.902 37.5v.007l-.01-.007Z"/><path fill="#fff" d="M75.794 37.5H37.902l3.05-3.075 2.341-2.357 3.31.556 10.25 1.715Z"/><path fill="#fff" d="m51.344 24.864-3.212 4.52-1.813 2.55-1.709-.286 6.734-6.78m4.975-5.91L43.293 32.073l3.31.554 2.044-2.872Z"/><path fill="#fff" d="m29.472 43.066 1.721.287-6.762 6.81 3.23-4.549Zm-.285-.693-2.037 2.872-7.694 10.83L32.51 42.93l-3.323-.554Z"/><path fill="#fff" d="m33.06 46.266-2.852 2.061-10.752 7.748 13.05-13.145Z"/><path fill="#f66" d="M37.902 37.5v.007l-.01-.007Z"/><path fill="#fff" d="m56.34 18.925-.021.029-13.026 13.114-.556-3.337 2.859-2.06Z"/><path fill="#fff" d="m43.707 44.256 6.753 6.8-4.501-3.244-2.536-1.829Zm-.423-1.326-.55 3.336 2.858 2.061 10.749 7.748Z"/><path fill="#fff" d="m32.292 32.758 2.104 2.118 1.974 1.988H7.685l11.373-1.896 10.243-1.708 2.994-.502m.218-.68-3.313.553-10.243 1.708L0 37.5h37.892l-3.05-3.072-2.332-2.35Z"/><path fill="#fff" d="m25.303 23.92 4.538 3.269 2.533 1.829-.287 1.733Zm-5.847-4.995.026.03L32.51 32.076v-.01l.55-3.336-2.852-2.06-10.755-7.749Z"/><path fill="#fff" d="m32.507 32.077-3.313.554-2.047-2.879-7.669-10.798Z"/><path fill="#fff" d="M37.902-.667V37.5h-.01l-3.051-3.075-2.334-2.348v-.01l.553-3.336 1.696-10.314Z"/><path fill="#fff" d="m37.902 37.506-3.06 3.076-2.335 2.347-3.32-.553-10.236-1.708L0 37.5h37.892Z"/><path fill="#f66" d="M37.902 37.5v.007l-.01-.007Z"/><path fill="#fff" d="m43.287 42.93-.55 3.336-1.699 10.314-3.136 19.087v-38.16l3.05 3.075Z"/><path fill="#fff" d="M56.34 56.075 43.288 42.929h.006l3.316-.553 2.038 2.872Z"/><path fill="#fff" d="m38.533 7.068 1.883 11.454 1.699 10.314.502 3.016-2.11 2.124-1.974 1.988Zm-.631-7.735V37.5l3.05-3.072 2.341-2.357-.556-3.336-1.699-10.315Z"/><path fill="#fff" d="M37.27 39.04v28.909l-1.892-11.473-1.696-10.315-.5-3.015 2.104-2.118 1.984-1.992m.632-1.533-3.06 3.073-2.332 2.35.55 3.337 1.696 10.315 3.146 19.083Z"/><path fill="#fff" d="m68.135 38.136-11.387 1.905-10.243 1.709-3.003.502-2.104-2.118-1.98-1.995h28.717m7.659-.636H37.902v.01l3.05 3.072 2.335 2.35h.01l3.316-.553 10.243-1.707 18.94-3.168Z"/></g><defs><clipPath id="clip0_57_2970"><path fill="#fff" d="M0 0h298v75H0Z"/></clipPath></defs></svg>