<svg xmlns="http://www.w3.org/2000/svg" width="298" height="75" viewBox="0 0 298 75" fill="none">
<g clip-path="url(#clip0_57_2970)">
<path d="M90.2004 11.9009H100.751C107.856 11.9009 111.445 15.587 111.445 22.8146V26.6456C111.445 31.1282 110.078 33.8731 107.281 35.2422V35.387C110.078 36.7628 111.445 39.5077 111.445 43.9837V61.7629H102.404V42.9766C102.404 40.2317 101.613 39.5801 99.319 39.5801H99.2471V61.7629H90.207V11.9009H90.2004ZM99.9596 32.0629C101.894 32.0629 102.398 31.3388 102.398 28.594V22.887C102.398 20.1421 101.894 19.418 99.9596 19.418H99.2406V32.0629H99.9596Z" fill="white"/>
<path d="M119.994 11.9009H132.695L137.787 61.7629H128.603L127.956 52.1525H124.224L123.576 61.7629H114.896L119.988 11.9009H119.994ZM127.675 44.6354L126.165 19.9183H126.021L124.511 44.6354H127.668H127.675Z" fill="white"/>
<path d="M140.212 51.5011V43.4047H149.037V52.1461C149.037 54.0945 149.54 54.8186 150.756 54.8186C151.972 54.8186 152.403 54.0945 152.403 52.1461V44.8462C152.403 43.115 151.756 41.8841 150.253 40.8704L146.161 38.1255C141.997 35.3082 140.206 32.1289 140.206 27.067V21.8669C140.206 15.2186 144.082 11.1704 150.468 11.1704C156.854 11.1704 160.946 15.2186 160.946 21.8669V28.0807H152.122V21.1428C152.122 19.484 151.691 18.8324 150.684 18.8324C149.605 18.8324 149.246 19.484 149.246 21.1428V26.7774C149.246 28.5086 149.893 29.7395 151.396 30.7532L155.488 33.4981C159.652 36.3154 161.443 39.4947 161.443 44.5566V51.4945C161.443 58.36 157.567 62.4806 150.821 62.4806C144.075 62.4806 140.199 58.36 140.199 51.4945L140.212 51.5011Z" fill="white"/>
<path d="M164.908 11.9009H173.948V31.194H177.105V11.9009H186.145V61.7629H177.105V38.7112H173.948V61.7629H164.908V11.9009Z" fill="white"/>
<path d="M189.603 11.9009H198.643V61.7629H189.603V11.9009Z" fill="white"/>
<path d="M202.101 11.9009H212.815L216.978 40.0145H217.122V11.9009H223.397V61.7629H214.318L209.579 29.1732H209.435V61.7629H202.095V11.9009H202.101Z" fill="white"/>
<path d="M226.849 11.9009H236.863C243.968 11.9009 247.557 15.587 247.557 22.8146V25.7767C247.557 30.1869 246.191 32.8594 243.537 34.3009V34.4458C246.406 35.8215 247.844 38.5664 247.844 43.1148V50.8492C247.844 58.0767 244.256 61.7629 237.151 61.7629H226.849V11.9009ZM236.079 31.3388C238.013 31.3388 238.517 30.6148 238.517 27.8699V22.887C238.517 20.1421 238.013 19.418 236.079 19.418H235.36V31.3388H236.079ZM236.366 54.2458C238.301 54.2458 238.804 53.5217 238.804 50.7768V42.3249C238.804 39.5801 238.301 38.856 236.366 38.856H235.36V54.2458H236.366Z" fill="white"/>
<path d="M255.453 11.9009H268.154L273.246 61.7629H264.062L263.415 52.1525H259.682L259.035 61.7629H250.355L255.447 11.9009H255.453ZM263.134 44.6354L261.624 19.9183H261.48L259.97 44.6354H263.127H263.134Z" fill="white"/>
<path d="M276.704 11.9009H287.417L291.581 40.0145H291.725V11.9009H298V61.7629H288.921L284.182 29.1732H284.038V61.7629H276.697V11.9009H276.704Z" fill="white"/>
<path d="M37.9023 37.5V37.5069L37.8921 37.5H37.9023Z" fill="#FF6666"/>
<path d="M37.9023 37.5V37.5069L37.8921 37.5H37.9023Z" fill="#FF6666"/>
<path d="M75.7938 37.5003H37.9016L40.9527 34.4247L43.2931 32.0679L46.6032 32.6245L56.8524 34.3388L75.7938 37.5003Z" fill="white"/>
<path d="M51.344 24.8639L48.1319 29.3835L46.3189 31.9344L44.6102 31.6481L51.344 24.8671M56.3186 18.9575L43.2931 32.0743L46.6032 32.6278L48.6467 29.7557L56.3186 18.9575Z" fill="white"/>
<path d="M29.4716 43.0664L31.193 43.3527L24.4307 50.1623L27.6618 45.6141L29.4716 43.0664ZM29.1874 42.373L27.1502 45.2451L19.4561 56.0751L32.5101 42.9297L29.1874 42.3762V42.373Z" fill="white"/>
<path d="M33.0597 46.2661L30.2076 48.3272L19.4561 56.0751L32.5069 42.9297L33.0597 46.2661Z" fill="white"/>
<path d="M37.9023 37.5V37.5069L37.8921 37.5H37.9023Z" fill="#FF6666"/>
<path d="M56.3407 18.9253L56.3186 18.9539L43.2931 32.0675L42.7372 28.7311L45.5956 26.6701L56.3407 18.9253Z" fill="white"/>
<path d="M43.7069 44.256L50.4597 51.0561L45.9589 47.8119L43.4227 45.9831L43.7069 44.256ZM43.2837 42.9297L42.7341 46.2661L45.5925 48.3272L56.3408 56.0751L43.2837 42.9297Z" fill="white"/>
<path d="M32.2922 32.7578L34.3957 34.8761L36.3698 36.864H7.68456L19.0582 34.9683L29.3011 33.2603L32.2953 32.7578M32.5133 32.0771L29.2 32.6306L18.9571 34.3386L1.14441e-05 37.5001H37.8922L34.8411 34.4276L32.5101 32.0771H32.5133Z" fill="white"/>
<path d="M25.3025 23.9191L29.8412 27.1888L32.3743 29.0176L32.0869 30.751L25.3025 23.9191ZM19.4562 18.9255L19.4815 18.9542L32.5101 32.0773V32.0678L33.0597 28.7313L30.2076 26.6703L19.453 18.9224L19.4562 18.9255Z" fill="white"/>
<path d="M32.507 32.0773L29.1938 32.6307L27.1471 29.7523L19.4783 18.9541L32.507 32.0773Z" fill="white"/>
<path d="M37.9016 -0.666992V37.5003H37.8921L34.841 34.4246L32.5069 32.0773V32.0678L33.0597 28.7313L34.7558 18.4166L37.9016 -0.666992Z" fill="white"/>
<path d="M37.9016 37.5064L34.8411 40.582L32.507 42.9293L29.1874 42.3759L18.9508 40.6679L1.14441e-05 37.5H37.8922L37.9016 37.5064Z" fill="white"/>
<path d="M37.9023 37.5V37.5069L37.8921 37.5H37.9023Z" fill="#FF6666"/>
<path d="M43.2868 42.9293L42.7372 46.2657L41.038 56.5804L37.9016 75.6672V37.5063L40.9527 40.582L43.2868 42.9293Z" fill="white"/>
<path d="M56.3408 56.0748L43.2868 42.9294H43.2931L46.6095 42.376L48.6467 45.2481L56.3408 56.0748Z" fill="white"/>
<path d="M38.5333 7.06824L40.4158 18.5216L42.115 28.8363L42.6172 31.8515L40.5073 33.9761L38.5333 35.964V7.06824ZM37.9016 -0.666992V37.5003L40.9527 34.4278L43.2931 32.071L42.7372 28.7345L41.038 18.4198L37.9016 -0.666992Z" fill="white"/>
<path d="M37.2699 39.0396V67.9482L35.378 56.4757L33.6819 46.161L33.1829 43.1458L35.2864 41.0275L37.2699 39.0365M37.9016 37.5034L34.8411 40.5759L32.5101 42.9263L33.0597 46.2628L34.7558 56.5775L37.9016 75.6611V37.5034Z" fill="white"/>
<path d="M68.1345 38.1364L56.7482 40.0415L46.5053 41.7495L43.5016 42.2521L41.398 40.1338L39.4177 38.1395H68.1345M75.7938 37.5034H37.9016V37.513L40.9527 40.5854L43.2868 42.9359H43.2963L46.6127 42.3825L56.8556 40.6745L75.7969 37.5066L75.7938 37.5034Z" fill="white"/>
</g>
<defs>
<clipPath id="clip0_57_2970">
<rect width="298" height="75" fill="white"/>
</clipPath>
</defs>
</svg>