<svg xmlns="http://www.w3.org/2000/svg" width="379" height="479" fill="none" viewBox="0 0 379 479"><path fill="url(#paint0_linear_2192_611)" d="m293.57 426.966-.475 13.881c-.36 10.523-7.952 20.051-23.351 27.075-21.091 9.624-52.681 12.656-86.191 9.727-30.866-2.699-63.36-10.454-90.798-22.776-35.482-15.933-54.171-35.762-53.585-52.938l.475-13.88c-.587 17.176 18.103 37.001 53.585 52.937 27.442 12.323 59.932 20.078 90.798 22.777 33.51 2.928 65.1-.104 86.191-9.727 15.399-7.025 22.991-16.552 23.351-27.076"/><path fill="url(#paint1_radial_2192_611)" d="M149.183 351.253c30.87 2.699 63.361 10.455 90.802 22.773 57.221 25.694 70.762 61.516 30.235 80.009-21.091 9.624-52.681 12.656-86.191 9.727-30.866-2.698-63.36-10.454-90.798-22.776-57.22-25.694-70.762-61.516-30.242-80.006 21.094-9.627 52.688-12.659 86.198-9.73Z"/><mask id="mask0_2192_611" width="255" height="129" x="39" y="350" maskUnits="userSpaceOnUse" style="mask-type:luminance"><path fill="#fff" d="M239.992 374.03c-27.441-12.322-59.932-20.078-90.802-22.773-33.509-2.928-65.104.104-86.198 9.731-15.548 7.097-23.129 16.744-23.344 27.393 0-.107-.003-.214 0-.321l-.475 13.88c-.586 17.176 18.104 37.002 53.586 52.938 27.442 12.322 59.932 20.078 90.798 22.776 33.51 2.929 65.1-.103 86.191-9.727 15.399-7.024 22.991-16.552 23.351-27.075l.475-13.881c0 .05-.008.1-.012.146.697-17.207-17.988-37.105-53.573-53.083Z"/></mask><g mask="url(#mask0_2192_611)"><path fill="url(#paint2_radial_2192_611)" d="M332.345 420.981c10.302-49.451-55.083-104.88-146.041-123.803S13.259 303.002 2.957 352.453C-7.344 401.904 58.041 457.333 149 476.256s173.045-5.824 183.346-55.275"/></g><path fill="url(#paint3_linear_2192_611)" d="m213.421 334.832-65.939-20.22c-2.62-.803-4.757 1.371-4.773 4.85l-.275 60.701c-.016 3.48 2.095 6.956 4.715 7.76l65.939 20.219c.739.226 1.436.211 2.064 0l-.057.027s18.13-5.666 18.145-5.669c2.007-.628 2.758-2.99 2.766-4.877l.275-60.701s-5.198 3.108-22.86-2.09"/><path fill="url(#paint4_linear_2192_611)" d="M327.001 388.155s37.616-9.773 37.62-9.777c6.849-1.78 10.193-8.938 11.434-15.323.341-1.761.464-3.564.475-5.356l1.712-234.201a38 38 0 0 0-.283-4.862c-.9-7.483-3.919-15.044-9.013-20.667-2.448-2.699-5.716-5.172-9.27-6.236L58.75 1.002C56.482.317 54.02.179 51.717.776l-37.62 9.777Z"/><path fill="url(#paint5_linear_2192_611)" d="M327.001 388.155s37.616-9.773 37.62-9.777c6.849-1.78 10.193-8.938 11.434-15.323.341-1.761.464-3.564.475-5.356l1.712-234.201a38 38 0 0 0-.283-4.862c-.9-7.483-3.919-15.044-9.013-20.667-2.448-2.699-5.716-5.172-9.27-6.236L58.75 1.002C56.482.317 54.02.179 51.717.776l-37.62 9.777Z"/><path fill="url(#paint6_linear_2192_611)" d="M322.053 101.51c10.362 3.124 18.674 17.352 18.567 31.765l-1.712 234.201c-.104 14.424-8.588 23.581-18.95 20.457L19.036 297.201C8.675 294.078.363 279.857.47 265.437L2.182 31.235c.103-14.412 8.588-23.58 18.95-20.456Z"/><path fill="url(#paint7_linear_2192_611)" d="M322.053 101.51c10.362 3.124 18.674 17.352 18.567 31.765l-1.712 234.201c-.104 14.424-8.588 23.581-18.95 20.457L19.036 297.201C8.675 294.078.363 279.857.47 265.437L2.182 31.235c.103-14.412 8.588-23.58 18.95-20.456Z"/><path fill="url(#paint8_linear_2192_611)" d="M304.29 121.226c8.822 2.661 15.908 14.776 15.82 27.068l-1.402 191.89c-.088 12.288-7.324 20.09-16.145 17.429L36.786 277.482c-8.822-2.661-15.908-14.776-15.82-27.068l1.402-191.89c.088-12.288 7.324-20.09 16.145-17.43Z"/><path fill="url(#paint9_linear_2192_611)" d="M304.29 121.226c8.822 2.661 15.908 14.776 15.82 27.068l-1.402 191.89c-.088 12.288-7.324 20.09-16.145 17.429L36.786 277.482c-8.822-2.661-15.908-14.776-15.82-27.068l1.402-191.89c.088-12.288 7.324-20.09 16.145-17.43Z"/><defs><linearGradient id="paint0_linear_2192_611" x1="-2.809" x2="309.954" y1="423.762" y2="448.65" gradientUnits="userSpaceOnUse"><stop offset=".01" stop-color="#9a6cf0"/><stop offset=".05" stop-color="#a377f1"/><stop offset=".12" stop-color="#bc94f5"/><stop offset=".21" stop-color="#e8c7fc"/><stop offset=".23" stop-color="#e0befa"/><stop offset=".32" stop-color="#ba92f5"/><stop offset=".4" stop-color="#a276f1"/><stop offset=".44" stop-color="#9a6cf0"/><stop offset=".57" stop-color="#885dd6"/><stop offset=".77" stop-color="#6945a9"/><stop offset=".83" stop-color="#704bb3"/><stop offset=".92" stop-color="#845bd1"/><stop offset="1" stop-color="#9a6cf0"/></linearGradient><linearGradient id="paint3_linear_2192_611" x1="142.438" x2="236.281" y1="361.375" y2="361.375" gradientUnits="userSpaceOnUse"><stop offset=".02" stop-color="#cf8aff"/><stop offset=".04" stop-color="#be80fa"/><stop offset=".06" stop-color="#aa75f4"/><stop offset=".08" stop-color="#9e6ef1"/><stop offset=".11" stop-color="#9a6cf0"/><stop offset=".78" stop-color="#9a6cf0"/><stop offset=".81" stop-color="#9266e5"/><stop offset=".85" stop-color="#7f57c9"/><stop offset=".89" stop-color="#6945a9"/></linearGradient><linearGradient id="paint4_linear_2192_611" x1="166.177" x2="287.288" y1="-45.474" y2="398.29" gradientUnits="userSpaceOnUse"><stop stop-color="#e8c7fc"/><stop offset=".07" stop-color="#dba7fd"/><stop offset=".12" stop-color="#d291fe"/><stop offset=".16" stop-color="#cf8aff"/><stop offset=".28" stop-color="#cc88fe"/><stop offset=".34" stop-color="#c484fc"/><stop offset=".39" stop-color="#b77cf8"/><stop offset=".43" stop-color="#a371f2"/><stop offset=".45" stop-color="#9a6cf0"/><stop offset=".9" stop-color="#9a6cf0"/><stop offset=".93" stop-color="#976aec"/><stop offset=".95" stop-color="#8f63e1"/><stop offset=".97" stop-color="#8359ce"/><stop offset=".99" stop-color="#714bb5"/><stop offset="1" stop-color="#6945a9"/></linearGradient><linearGradient id="paint5_linear_2192_611" x1="392.036" x2="28.029" y1="192.157" y2="195.994" gradientUnits="userSpaceOnUse"><stop stop-color="#e8c7fc"/><stop offset=".07" stop-color="#a579d6"/><stop offset=".16" stop-color="#9166cf"/><stop offset=".26" stop-color="#855bcc"/><stop offset=".36" stop-color="#8158cb"/><stop offset=".63" stop-color="#8259cd"/><stop offset=".79" stop-color="#885dd5"/><stop offset=".92" stop-color="#9165e3"/><stop offset="1" stop-color="#9a6cf0"/></linearGradient><linearGradient id="paint6_linear_2192_611" x1="-15.178" x2="359.075" y1="199.354" y2="199.354" gradientUnits="userSpaceOnUse"><stop offset=".03" stop-color="#c9b3f8"/><stop offset=".07" stop-color="#d6bbf9"/><stop offset=".12" stop-color="#e3c4fb"/><stop offset=".16" stop-color="#e8c7fc"/><stop offset=".44" stop-color="#e4c4fb"/><stop offset=".67" stop-color="#dabefa"/><stop offset=".87" stop-color="#cab3f8"/><stop offset=".88" stop-color="#c9b3f8"/><stop offset=".93" stop-color="#b79ff4"/><stop offset=".98" stop-color="#a389f0"/></linearGradient><linearGradient id="paint7_linear_2192_611" x1="127.674" x2="226.65" y1="342.169" y2="12.021" gradientUnits="userSpaceOnUse"><stop stop-color="#432594"/><stop offset=".04" stop-color="#8c73cb"/><stop offset=".08" stop-color="#c9b3f8"/></linearGradient><linearGradient id="paint8_linear_2192_611" x1="20.966" x2="320.11" y1="199.356" y2="199.356" gradientUnits="userSpaceOnUse"><stop stop-color="#f3f8fb"/><stop offset=".09" stop-color="#e0eff1"/><stop offset=".82" stop-color="#dfeef0"/><stop offset=".9" stop-color="#ddecee"/><stop offset=".93" stop-color="#d6e6e8"/><stop offset=".95" stop-color="#cadbde"/><stop offset=".97" stop-color="#b9cccf"/><stop offset=".98" stop-color="#a6bbbe"/></linearGradient><linearGradient id="paint9_linear_2192_611" x1="210.002" x2="137.532" y1="60.84" y2="315.534" gradientUnits="userSpaceOnUse"><stop offset=".1" stop-color="#f3f8fb"/><stop offset=".21" stop-color="#f3f8fb"/><stop offset=".36" stop-color="#eef4f7"/><stop offset=".53" stop-color="#e1e9ec"/><stop offset=".7" stop-color="#cbd8db"/><stop offset=".87" stop-color="#acc0c3"/><stop offset=".91" stop-color="#a6bbbe"/><stop offset="1" stop-color="#a6bbbe"/></linearGradient><radialGradient id="paint1_radial_2192_611" cx="0" cy="0" r="1" gradientTransform="translate(250.615 129.528) scale(352.289 352.058)" gradientUnits="userSpaceOnUse" patternTransform="matrix(352.289,0,0,352.058,250.615,129.528)"><stop offset=".87" stop-color="#6945a9"/><stop offset=".91" stop-color="#734db8"/><stop offset=".98" stop-color="#9064e1"/><stop offset="1" stop-color="#9a6cf0"/></radialGradient><radialGradient id="paint2_radial_2192_611" cx="0" cy="0" r="1" gradientTransform="matrix(164.443 34.2116 -18.5676 89.1307 167.248 386.646)" gradientUnits="userSpaceOnUse" patternTransform="matrix(164.443,34.2116,-18.5676,89.1307,167.248,386.646)"><stop offset=".71" stop-color="#a77ad7"/><stop offset=".84" stop-color="#a77ad7"/><stop offset=".85" stop-color="#a77ad7"/><stop offset=".97" stop-color="#a77ad7"/></radialGradient></defs></svg>