<svg xmlns="http://www.w3.org/2000/svg" width="379" height="479" viewBox="0 0 379 479" fill="none">
<path d="M293.57 426.966L293.095 440.847C292.735 451.37 285.143 460.898 269.744 467.922C248.653 477.546 217.063 480.578 183.553 477.649C152.687 474.95 120.193 467.195 92.7548 454.873C57.2726 438.94 38.5836 419.111 39.1696 401.935L39.6446 388.055C39.0585 405.231 57.7477 425.056 93.2298 440.992C120.672 453.315 153.162 461.07 184.028 463.769C217.538 466.697 249.128 463.665 270.219 454.042C285.618 447.017 293.21 437.49 293.57 426.966Z" fill="url(#paint0_linear_2192_611)"/>
<path d="M149.183 351.253C180.053 353.952 212.544 361.708 239.985 374.026C297.206 399.72 310.747 435.542 270.22 454.035C249.129 463.659 217.539 466.691 184.029 463.762C153.163 461.064 120.669 453.308 93.2305 440.986C36.0102 415.292 22.4693 379.47 62.9885 360.98C84.0832 351.353 115.677 348.321 149.187 351.25L149.183 351.253Z" fill="url(#paint1_radial_2192_611)"/>
<mask id="mask0_2192_611" style="mask-type: luminance" maskUnits="userSpaceOnUse" x="39" y="350" width="255" height="129">
<path d="M239.992 374.03C212.551 361.708 180.06 353.952 149.19 351.257C115.681 348.329 84.0864 351.361 62.9917 360.988C47.4436 368.085 39.863 377.732 39.6485 388.381C39.6485 388.274 39.6447 388.167 39.6485 388.06L39.1735 401.94C38.5875 419.116 57.2766 438.942 92.7587 454.878C120.201 467.2 152.691 474.956 183.557 477.654C217.067 480.583 248.657 477.551 269.748 467.927C285.147 460.903 292.739 451.375 293.099 440.852L293.574 426.971C293.574 427.021 293.566 427.071 293.562 427.117C294.259 409.91 275.574 390.012 239.989 374.034L239.992 374.03Z" fill="white"/>
</mask>
<g mask="url(#mask0_2192_611)">
<path d="M332.345 420.981C342.647 371.53 277.262 316.101 186.304 297.178C95.3461 278.255 13.259 303.002 2.95738 352.453C-7.34422 401.904 58.0407 457.333 148.999 476.256C239.957 495.179 322.044 470.432 332.345 420.981Z" fill="url(#paint2_radial_2192_611)"/>
</g>
<path d="M213.421 334.832L147.482 314.612C144.862 313.809 142.725 315.983 142.709 319.462L142.434 380.163C142.418 383.643 144.529 387.119 147.149 387.923L213.088 408.142C213.827 408.368 214.524 408.353 215.152 408.142C215.133 408.15 215.114 408.161 215.095 408.169C215.095 408.169 233.225 402.503 233.24 402.5C235.247 401.872 235.998 399.51 236.006 397.623L236.281 336.922C236.281 336.922 231.083 340.03 213.421 334.832Z" fill="url(#paint3_linear_2192_611)"/>
<path d="M327.001 388.155C327.001 388.155 364.617 378.382 364.621 378.378C371.47 376.598 374.814 369.44 376.055 363.055C376.396 361.294 376.519 359.491 376.53 357.699L378.242 123.498C378.254 121.894 378.154 120.244 377.959 118.636C377.059 111.153 374.04 103.592 368.946 97.9691C366.498 95.2703 363.23 92.7974 359.676 91.7332L58.75 1.00186C56.4824 0.316646 54.0194 0.178838 51.7172 0.776007L14.0977 10.5527L327.001 388.155Z" fill="url(#paint4_linear_2192_611)"/>
<path d="M327.001 388.155C327.001 388.155 364.617 378.382 364.621 378.378C371.47 376.598 374.814 369.44 376.055 363.055C376.396 361.294 376.519 359.491 376.53 357.699L378.242 123.498C378.254 121.894 378.154 120.244 377.959 118.636C377.059 111.153 374.04 103.592 368.946 97.9691C366.498 95.2703 363.23 92.7974 359.676 91.7332L58.75 1.00186C56.4824 0.316646 54.0194 0.178838 51.7172 0.776007L14.0977 10.5527L327.001 388.155Z" fill="url(#paint5_linear_2192_611)"/>
<path d="M322.053 101.51C332.415 104.634 340.727 118.862 340.62 133.275L338.908 367.476C338.804 381.9 330.32 391.057 319.958 387.933L19.0363 297.201C8.67476 294.078 0.362522 279.857 0.469776 265.437L2.18203 31.2355C2.28546 16.8231 10.77 7.65498 21.1316 10.7786L322.053 101.51Z" fill="url(#paint6_linear_2192_611)"/>
<path d="M322.053 101.51C332.415 104.634 340.727 118.862 340.62 133.275L338.908 367.476C338.804 381.9 330.32 391.057 319.958 387.933L19.0363 297.201C8.67476 294.078 0.362522 279.857 0.469776 265.437L2.18203 31.2355C2.28546 16.8231 10.77 7.65498 21.1316 10.7786L322.053 101.51Z" fill="url(#paint7_linear_2192_611)"/>
<path d="M304.29 121.226C313.112 123.887 320.198 136.002 320.11 148.294L318.708 340.184C318.62 352.472 311.384 360.274 302.563 357.613L36.7857 277.482C27.964 274.821 20.8776 262.706 20.9657 250.414L22.3676 58.5235C22.4557 46.2357 29.6916 38.4342 38.5133 41.0946L304.29 121.226Z" fill="url(#paint8_linear_2192_611)"/>
<path d="M304.29 121.226C313.112 123.887 320.198 136.002 320.11 148.294L318.708 340.184C318.62 352.472 311.384 360.274 302.563 357.613L36.7857 277.482C27.964 274.821 20.8776 262.706 20.9657 250.414L22.3676 58.5235C22.4557 46.2357 29.6916 38.4342 38.5133 41.0946L304.29 121.226Z" fill="url(#paint9_linear_2192_611)"/>
<defs>
<linearGradient id="paint0_linear_2192_611" x1="-2.80905" y1="423.762" x2="309.954" y2="448.65" gradientUnits="userSpaceOnUse">
<stop offset="0.01" stop-color="#9A6CF0"/>
<stop offset="0.05" stop-color="#A377F1"/>
<stop offset="0.12" stop-color="#BC94F5"/>
<stop offset="0.21" stop-color="#E8C7FC"/>
<stop offset="0.23" stop-color="#E0BEFA"/>
<stop offset="0.32" stop-color="#BA92F5"/>
<stop offset="0.4" stop-color="#A276F1"/>
<stop offset="0.44" stop-color="#9A6CF0"/>
<stop offset="0.57" stop-color="#885DD6"/>
<stop offset="0.77" stop-color="#6945A9"/>
<stop offset="0.83" stop-color="#704BB3"/>
<stop offset="0.92" stop-color="#845BD1"/>
<stop offset="1" stop-color="#9A6CF0"/>
</linearGradient>
<radialGradient id="paint1_radial_2192_611" cx="0" cy="0" r="1" gradientUnits="userSpaceOnUse" gradientTransform="translate(250.615 129.528) scale(352.289 352.058)">
<stop offset="0.87" stop-color="#6945A9"/>
<stop offset="0.91" stop-color="#734DB8"/>
<stop offset="0.98" stop-color="#9064E1"/>
<stop offset="1" stop-color="#9A6CF0"/>
</radialGradient>
<radialGradient id="paint2_radial_2192_611" cx="0" cy="0" r="1" gradientTransform="matrix(164.443 34.2116 -18.5676 89.1307 167.248 386.646)" gradientUnits="userSpaceOnUse">
<stop offset="0.71" stop-color="#A77AD7"/>
<stop offset="0.84" stop-color="#A77AD7"/>
<stop offset="0.85" stop-color="#A77AD7"/>
<stop offset="0.97" stop-color="#A77AD7"/>
</radialGradient>
<linearGradient id="paint3_linear_2192_611" x1="142.438" y1="361.375" x2="236.281" y2="361.375" gradientUnits="userSpaceOnUse">
<stop offset="0.02" stop-color="#CF8AFF"/>
<stop offset="0.04" stop-color="#BE80FA"/>
<stop offset="0.06" stop-color="#AA75F4"/>
<stop offset="0.08" stop-color="#9E6EF1"/>
<stop offset="0.11" stop-color="#9A6CF0"/>
<stop offset="0.78" stop-color="#9A6CF0"/>
<stop offset="0.81" stop-color="#9266E5"/>
<stop offset="0.85" stop-color="#7F57C9"/>
<stop offset="0.89" stop-color="#6945A9"/>
</linearGradient>
<linearGradient id="paint4_linear_2192_611" x1="166.177" y1="-45.474" x2="287.288" y2="398.29" gradientUnits="userSpaceOnUse">
<stop stop-color="#E8C7FC"/>
<stop offset="0.07" stop-color="#DBA7FD"/>
<stop offset="0.12" stop-color="#D291FE"/>
<stop offset="0.16" stop-color="#CF8AFF"/>
<stop offset="0.28" stop-color="#CC88FE"/>
<stop offset="0.34" stop-color="#C484FC"/>
<stop offset="0.39" stop-color="#B77CF8"/>
<stop offset="0.43" stop-color="#A371F2"/>
<stop offset="0.45" stop-color="#9A6CF0"/>
<stop offset="0.9" stop-color="#9A6CF0"/>
<stop offset="0.93" stop-color="#976AEC"/>
<stop offset="0.95" stop-color="#8F63E1"/>
<stop offset="0.97" stop-color="#8359CE"/>
<stop offset="0.99" stop-color="#714BB5"/>
<stop offset="1" stop-color="#6945A9"/>
</linearGradient>
<linearGradient id="paint5_linear_2192_611" x1="392.036" y1="192.157" x2="28.0293" y2="195.994" gradientUnits="userSpaceOnUse">
<stop stop-color="#E8C7FC"/>
<stop offset="0.07" stop-color="#A579D6"/>
<stop offset="0.16" stop-color="#9166CF"/>
<stop offset="0.26" stop-color="#855BCC"/>
<stop offset="0.36" stop-color="#8158CB"/>
<stop offset="0.63" stop-color="#8259CD"/>
<stop offset="0.79" stop-color="#885DD5"/>
<stop offset="0.92" stop-color="#9165E3"/>
<stop offset="1" stop-color="#9A6CF0"/>
</linearGradient>
<linearGradient id="paint6_linear_2192_611" x1="-15.1779" y1="199.354" x2="359.075" y2="199.354" gradientUnits="userSpaceOnUse">
<stop offset="0.03" stop-color="#C9B3F8"/>
<stop offset="0.07" stop-color="#D6BBF9"/>
<stop offset="0.12" stop-color="#E3C4FB"/>
<stop offset="0.16" stop-color="#E8C7FC"/>
<stop offset="0.44" stop-color="#E4C4FB"/>
<stop offset="0.67" stop-color="#DABEFA"/>
<stop offset="0.87" stop-color="#CAB3F8"/>
<stop offset="0.88" stop-color="#C9B3F8"/>
<stop offset="0.93" stop-color="#B79FF4"/>
<stop offset="0.98" stop-color="#A389F0"/>
</linearGradient>
<linearGradient id="paint7_linear_2192_611" x1="127.674" y1="342.169" x2="226.65" y2="12.0214" gradientUnits="userSpaceOnUse">
<stop stop-color="#432594"/>
<stop offset="0.04" stop-color="#8C73CB"/>
<stop offset="0.08" stop-color="#C9B3F8"/>
</linearGradient>
<linearGradient id="paint8_linear_2192_611" x1="20.9657" y1="199.356" x2="320.11" y2="199.356" gradientUnits="userSpaceOnUse">
<stop stop-color="#F3F8FB"/>
<stop offset="0.09" stop-color="#E0EFF1"/>
<stop offset="0.82" stop-color="#DFEEF0"/>
<stop offset="0.9" stop-color="#DDECEE"/>
<stop offset="0.93" stop-color="#D6E6E8"/>
<stop offset="0.95" stop-color="#CADBDE"/>
<stop offset="0.97" stop-color="#B9CCCF"/>
<stop offset="0.98" stop-color="#A6BBBE"/>
</linearGradient>
<linearGradient id="paint9_linear_2192_611" x1="210.002" y1="60.8395" x2="137.532" y2="315.534" gradientUnits="userSpaceOnUse">
<stop offset="0.1" stop-color="#F3F8FB"/>
<stop offset="0.21" stop-color="#F3F8FB"/>
<stop offset="0.36" stop-color="#EEF4F7"/>
<stop offset="0.53" stop-color="#E1E9EC"/>
<stop offset="0.7" stop-color="#CBD8DB"/>
<stop offset="0.87" stop-color="#ACC0C3"/>
<stop offset="0.91" stop-color="#A6BBBE"/>
<stop offset="1" stop-color="#A6BBBE"/>
</linearGradient>
</defs>
</svg>