<svg xmlns="http://www.w3.org/2000/svg" width="294" height="66" fill="none" viewBox="0 0 232 52"><path fill="#fff" d="M57.393.344c-2.308 5.645-3.648 7.342-4.538 12.83-.54 3.375-1.247 15.265-4.125 21.258-2.774 5.773-10.927 6.488-16.652 7.508-.7 2.039-3.378 10.034-3.378 10.034-.7-2.23-2.68-7.998-3.379-10.034-5.725-1.02-13.878-1.735-16.652-7.508-2.878-5.993-3.584-17.88-4.125-21.258C3.648 7.686 2.308 5.989 0 .344c4.17 4.49 10.297 9.752 15.844 13.473L11.548 14c-2.888.095-1.634 3.632-.564 9.512 1.884 10.35 4.09 10.23 12.808 10.807-.605-3.696-1.086-6.853-1.086-6.853s4.211 5.773 5.99 8.898c1.78-3.128 5.991-8.897 5.991-8.897s-.484 3.156-1.086 6.852c8.717-.577 10.92-.457 12.808-10.807 1.07-5.88 2.324-9.417-.564-9.512l-4.3-.184C47.096 10.096 53.223 4.835 57.39.345M70.89 11.578v31.955h7.377V30.934l8.622 12.598h9.008l-9.821-13.08c1.773-.43 3.353-1.39 4.455-2.444 2.061-2.014 2.492-4.502 2.492-6.516 0-3.547-1.438-5.845-2.78-7.137-1.533-1.438-4.072-2.78-8.144-2.78H70.888Zm7.377 5.75h1.726c.96 0 2.875.095 4.072 1.007.624.478 1.485 1.437 1.485 3.258 0 1.58-.671 2.587-1.197 3.113-1.244 1.244-3.065 1.39-4.407 1.39h-1.678Zm42.398-5.75h-18.061v31.955h18.061v-6.228h-10.684v-7.09h10.158v-6.228h-10.158v-6.18h10.684Zm16.05 0V33.28c0 1.342-.048 2.875-.96 3.784-.528.525-1.102.67-1.725.67-.719 0-1.292-.192-1.821-.718-.383-.383-.861-1.197-1.149-1.773l-4.601 5.174c.814 1.007 2.014 2.061 3.018 2.682 1.675 1.007 3.353 1.15 5.078 1.15 2.062 0 4.649-.29 6.754-2.398 2.635-2.587 2.78-6.133 2.78-8.527V11.578h-7.377Zm34.589 0h-18.061v31.955h18.061v-6.228h-10.683v-7.09h10.157v-6.228h-10.157v-6.18h10.683ZM203.5 34.046c-2.828 2.78-5.414 3.306-7.33 3.306-3.929 0-6.228-2.01-6.899-2.682-1.438-1.39-2.781-3.736-2.781-7.042 0-3.065 1.245-5.652 3.018-7.378 1.678-1.627 3.831-2.491 6.516-2.491 3.401 0 5.845 1.678 7.473 3.4v-8.527c-3.116-1.342-5.557-1.773-7.666-1.773-4.98 0-9.103 1.868-11.927 4.6-2.875 2.78-4.984 6.995-4.984 12.026 0 5.032 2.109 9.341 4.984 12.121 2.681 2.635 6.658 4.648 12.551 4.648 1.916 0 4.214-.288 7.042-1.725v-8.48Zm27.642-16.24v-6.228h-21.271v6.228h6.947v25.726h7.377V17.807Zm-35.137 6.076a3.525 3.525 0 1 0 .002 7.05 3.525 3.525 0 0 0-.002-7.05"/></svg>