<svg width="351" height="228" viewBox="0 0 351 228" fill="none" xmlns="http://www.w3.org/2000/svg">
<path d="M175.473 175V175.049L175.425 175H175.473Z" fill="#FF6666"/>
<path d="M175.473 175V175.049L175.425 175H175.473Z" fill="#FF6666"/>
<path d="M350.88 175H175.471L189.599 160.908L200.429 150.106L215.749 152.651L263.206 160.512L350.88 175Z" fill="#CFCFCF"/>
<path d="M260.731 89.9604L225.203 139.488L215.748 152.651L200.428 150.107L260.731 89.9604Z" fill="#858585"/>
<path d="M150.497 199.908L90.072 260.176L125.692 210.526L135.116 197.364L150.497 199.908Z" fill="#858585"/>
<path d="M153.048 215.204L139.851 224.649L90.072 260.176L150.497 199.908L153.048 215.204Z" fill="#CFCFCF"/>
<path d="M175.473 175V175.049L175.425 175H175.473Z" fill="#FF6666"/>
<path d="M260.838 89.8232L260.731 89.9604L200.428 150.107L197.847 134.796L211.074 125.35L260.838 89.8232Z" fill="#CFCFCF"/>
<path d="M260.838 260.176L211.074 224.649L197.847 215.204L200.398 199.908L260.838 260.176Z" fill="#858585"/>
<path d="M175.424 175.001H-6.10352e-05L87.7351 160.512L135.162 152.682L150.497 150.138L161.296 160.909L175.424 175.001Z" fill="#858585"/>
<path d="M153.048 134.796L150.497 150.107V150.137L90.179 89.9604L90.072 89.8232L139.851 125.35L153.048 134.796Z" fill="#858585"/>
<path d="M150.497 150.137L135.162 152.681L125.692 139.488L90.1793 89.9604L150.497 150.137Z" fill="#CFCFCF"/>
<path d="M175.47 0V175H175.425L161.296 160.908L150.497 150.137V150.107L153.048 134.796L160.899 87.5076L175.47 0Z" fill="#FC6F6F"/>
<path d="M175.47 175.046L161.296 189.138L150.497 199.909L135.116 197.364L87.7351 189.534L-6.10352e-05 175H175.424L175.47 175.046Z" fill="#CFCFCF"/>
<path d="M175.473 175V175.049L175.425 175H175.473Z" fill="#FF6666"/>
<path d="M200.398 199.909L197.847 215.204L189.996 262.493L175.471 350V175.046L189.599 189.138L200.398 199.909Z" fill="#CFCFCF"/>
<path d="M260.838 260.176L200.398 199.908H200.428L215.779 197.364L225.203 210.526L260.838 260.176Z" fill="#CFCFCF"/>
<path d="M200.429 150.107L189.599 160.908L175.471 175V0L189.996 87.5076L197.847 134.796L200.429 150.107Z" fill="#FF3030"/>
<path d="M175.47 175.046V350L160.899 262.493L153.048 215.204L150.497 199.909L161.296 189.138L175.47 175.046Z" fill="#858585"/>
<path d="M350.88 175L263.206 189.534L215.779 197.364L200.429 199.909H200.398L189.599 189.138L175.471 175.046V175H350.88Z" fill="#858585"/>
</svg>
