<svg width="705" height="788" viewBox="0 0 705 788" fill="none" xmlns="http://www.w3.org/2000/svg">
<path d="M395.35 393.735V393.845L395.241 393.735H395.35Z" fill="#FF6666"/>
<path d="M395.35 393.735V393.845L395.241 393.735H395.35Z" fill="#FF6666"/>
<path d="M790 393.735H395.344L427.132 362.029L451.497 337.727L485.966 343.451L592.741 361.138L790 393.735Z" fill="#CFCFCF"/>
<path d="M587.172 202.403L507.237 313.836L485.965 343.451L451.496 337.727L587.172 202.403Z" fill="#858585"/>
<path d="M339.155 449.778L203.204 585.376L283.345 473.668L304.549 444.053L339.155 449.778Z" fill="#858585"/>
<path d="M344.894 484.191L315.202 505.443L203.204 585.376L339.155 449.777L344.894 484.191Z" fill="#CFCFCF"/>
<path d="M395.35 393.735V393.845L395.241 393.735H395.35Z" fill="#FF6666"/>
<path d="M587.413 202.095L587.172 202.404L451.496 337.728L445.688 303.28L475.449 282.028L587.413 202.095Z" fill="#CFCFCF"/>
<path d="M587.413 585.376L475.449 505.443L445.688 484.191L451.427 449.777L587.413 585.376Z" fill="#858585"/>
<path d="M395.24 393.736H0.549316L197.946 361.139L304.652 343.521L339.155 337.797L363.452 362.03L395.24 393.736Z" fill="#858585"/>
<path d="M344.894 303.28L339.155 337.728V337.796L203.445 202.404L203.204 202.095L315.202 282.028L344.894 303.28Z" fill="#858585"/>
<path d="M339.155 337.795L304.652 343.52L283.345 313.836L203.445 202.403L339.155 337.795Z" fill="#CFCFCF"/>
<path d="M395.343 0V393.735H395.24L363.452 362.03L339.155 337.796V337.727L344.894 303.279L362.558 196.885L395.343 0Z" fill="#FC6F6F"/>
<path d="M395.343 393.838L363.452 425.544L339.155 449.778L304.549 444.053L197.946 426.435L0.549316 393.735H395.24L395.343 393.838Z" fill="#CFCFCF"/>
<path d="M395.35 393.735V393.845L395.241 393.735H395.35Z" fill="#FF6666"/>
<path d="M451.429 449.778L445.69 484.191L428.026 590.586L395.344 787.471V393.838L427.132 425.544L451.429 449.778Z" fill="#CFCFCF"/>
<path d="M587.413 585.376L451.428 449.778H451.496L486.034 444.053L507.238 473.668L587.413 585.376Z" fill="#CFCFCF"/>
<path d="M451.497 337.727L427.132 362.03L395.344 393.735V0L428.026 196.885L445.69 303.279L451.497 337.727Z" fill="#FF3030"/>
<path d="M395.343 393.838V787.471L362.558 590.586L344.894 484.191L339.155 449.778L363.452 425.544L395.343 393.838Z" fill="#858585"/>
<path d="M790 393.735L592.741 426.435L486.035 444.053L451.497 449.778H451.429L427.132 425.544L395.344 393.838V393.735H790Z" fill="#858585"/>
</svg>
