<svg width="294" height="66" viewBox="0 0 232 52" fill="none" xmlns="http://www.w3.org/2000/svg">
<path d="M57.3929 0.34375C55.0846 5.98932 53.7453 7.68647 52.8555 13.1737C52.3141 16.549 51.608 28.4386 48.7298 34.4325C45.9561 40.2047 37.8028 40.9203 32.0781 41.9398C31.3783 43.9789 28.6996 51.9739 28.6996 51.9739C27.9999 49.7448 26.0209 43.9758 25.3211 41.9398C19.5964 40.9203 11.4431 40.2047 8.66941 34.4325C5.79122 28.4386 5.08513 16.5522 4.54368 13.1737C3.64761 7.68647 2.30825 5.98932 0 0.34375C4.17006 4.83361 10.2969 10.096 15.8443 13.8165L11.5476 14.0001C8.65991 14.0951 9.91378 17.6319 10.984 23.5118C12.868 33.8625 15.0749 33.7422 23.7918 34.3185C23.187 30.6234 22.7057 27.4665 22.7057 27.4665C22.7057 27.4665 26.917 33.2388 28.6964 36.3639C30.4759 33.2356 34.6871 27.4665 34.6871 27.4665C34.6871 27.4665 34.2027 30.6234 33.6011 34.3185C42.318 33.7422 44.5218 33.8625 46.4089 23.5118C47.4791 17.6319 48.733 14.0951 45.8453 14.0001L41.5454 13.8165C47.096 10.096 53.2228 4.83361 57.3897 0.34375M70.891 11.5779V43.5325H78.2685V30.9337L86.8904 43.5325H95.8986L86.0767 30.4524C87.8498 30.0218 89.4298 29.0624 90.5317 28.008C92.593 25.9942 93.0236 23.5055 93.0236 21.4917C93.0236 17.9454 91.5861 15.6466 90.2436 14.3548C88.7111 12.9172 86.1717 11.5747 82.0998 11.5747H70.8878L70.891 11.5779ZM78.2685 17.3279H79.9941C80.9535 17.3279 82.8692 17.4229 84.066 18.3348C84.6898 18.813 85.5511 19.7724 85.5511 21.593C85.5511 23.173 84.8798 24.1799 84.3542 24.7055C83.1098 25.9499 81.2892 26.0955 79.9467 26.0955H78.2685V17.3279ZM120.666 11.5779H102.605V43.5325H120.666V37.3043H109.982V30.2149H120.14V23.9867H109.982V17.8061H120.666V11.5779ZM136.716 11.5779V33.2799C136.716 34.6224 136.668 36.1549 135.756 37.0637C135.228 37.5893 134.654 37.7349 134.031 37.7349C133.312 37.7349 132.739 37.5418 132.21 37.0162C131.827 36.6331 131.349 35.8193 131.061 35.243L126.46 40.4168C127.274 41.4237 128.474 42.4781 129.478 43.0987C131.153 44.1056 132.831 44.2481 134.556 44.2481C136.618 44.2481 139.205 43.9599 141.31 41.8512C143.945 39.2643 144.09 35.718 144.09 33.3242V11.5779H136.713H136.716ZM171.305 11.5779H153.244V43.5325H171.305V37.3043H160.622V30.2149H170.779V23.9867H160.622V17.8061H171.305V11.5779ZM203.5 34.0462C200.672 36.8262 198.086 37.3518 196.17 37.3518C192.241 37.3518 189.942 35.3412 189.271 34.6699C187.833 33.2799 186.49 30.9337 186.49 27.628C186.49 24.563 187.735 21.9761 189.508 20.2505C191.186 18.623 193.339 17.7586 196.024 17.7586C199.425 17.7586 201.869 19.4367 203.497 21.1592V12.6323C200.381 11.2898 197.94 10.8591 195.831 10.8591C190.851 10.8591 186.728 12.7273 183.904 15.4598C181.029 18.2398 178.92 22.4542 178.92 27.4855C178.92 32.5168 181.029 36.8262 183.904 39.6062C186.585 42.2406 190.562 44.2544 196.455 44.2544C198.371 44.2544 200.669 43.9663 203.497 42.5288V34.0493L203.5 34.0462ZM231.142 17.8061V11.5779H209.871V17.8061H216.818V43.5325H224.195V17.8061H231.142ZM196.005 23.8822C194.058 23.8822 192.481 25.4622 192.481 27.4064C192.481 29.3505 194.058 30.9305 196.005 30.9305C197.953 30.9305 199.529 29.3537 199.529 27.4064C199.529 25.4591 197.953 23.8822 196.005 23.8822Z" fill="white"/>
</svg>
